<?xml version="1.0" encoding="iso-8859-1"?>
<!-- Uploaded to: SVG Repo, www.svgrepo.com, Generator: SVG Repo Mixer Tools -->
<svg version="1.1" id="Layer_1" xmlns="http://www.w3.org/2000/svg" xmlns:xlink="http://www.w3.org/1999/xlink" 
	 viewBox="0 0 512 512" xml:space="preserve">
<path style="fill:#E8E8E8;" d="M376.36,512H135.64c-8.632-0.04-15.616-7.04-15.64-15.672V15.672C120.024,7.04,127.008,0.04,135.64,0
	h240.72c8.632,0.04,15.616,7.04,15.64,15.672v480.656C391.976,504.96,384.992,511.96,376.36,512z"/>
<rect x="133.928" y="42.144" width="244.152" height="414.168"/>
<g>
	<circle style="fill:#AAAAAA;" cx="268.6" cy="13.536" r="4.128"/>
	<path style="fill:#AAAAAA;" d="M294.896,32.64h-52.592c-1.712-0.008-3.088-1.384-3.096-3.096v-2.056
		c0.008-1.712,1.384-3.088,3.096-3.096h52.592c1.712,0.008,3.088,1.384,3.096,3.096v2.064
		C297.976,31.256,296.6,32.632,294.896,32.64z"/>
	<circle style="fill:#AAAAAA;" cx="226.8" cy="28.52" r="4.128"/>
</g>
<g style="opacity:0.15;">
	<polygon style="fill:#FFFFFF;" points="133.928,215.32 133.928,42.144 339.68,42.144 	"/>
</g>
<circle style="fill:#AAAAAA;" cx="256" cy="484.16" r="20.464"/>
<path style="fill:#FFFFFF;" d="M256,493.904c-5.392,0-9.76-4.368-9.76-9.76s4.368-9.76,9.76-9.76s9.76,4.368,9.76,9.76
	C265.752,489.536,261.392,493.896,256,493.904z M256,477.056c-3.912,0.008-7.088,3.184-7.08,7.096s3.184,7.088,7.096,7.08
	s7.088-3.184,7.08-7.096S259.912,477.048,256,477.056L256,477.056z"/>
<path style="fill:#CCCCCC;" d="M161.24,59.744h25.496c4.056,0,7.344,3.288,7.344,7.344v25.496c0,4.056-3.288,7.344-7.344,7.344
	H161.24c-4.056,0-7.344-3.288-7.344-7.344V67.088C153.896,63.032,157.184,59.744,161.24,59.744z"/>
<path style="fill:#E21B1B;" d="M215.912,59.744h25.496c4.056,0,7.344,3.288,7.344,7.344v25.496c0,4.056-3.288,7.344-7.344,7.344
	h-25.496c-4.056,0-7.344-3.288-7.344-7.344V67.088C208.568,63.032,211.856,59.744,215.912,59.744z"/>
<path style="fill:#666666;" d="M270.592,59.744h25.496c4.056,0,7.344,3.288,7.344,7.344v25.496c0,4.056-3.288,7.344-7.344,7.344
	h-25.496c-4.056,0-7.344-3.288-7.344-7.344V67.088C263.248,63.032,266.536,59.744,270.592,59.744z"/>
<path style="fill:#CCCCCC;" d="M325.272,59.744h25.496c4.056,0,7.344,3.288,7.344,7.344v25.496c0,4.056-3.288,7.344-7.344,7.344
	h-25.496c-4.056,0-7.344-3.288-7.344-7.344V67.088C317.928,63.032,321.216,59.744,325.272,59.744z"/>
<path style="fill:#666666;" d="M161.24,115.384h25.496c4.056,0,7.344,3.288,7.344,7.344v25.496c0,4.056-3.288,7.344-7.344,7.344
	H161.24c-4.056,0-7.344-3.288-7.344-7.344v-25.496C153.896,118.672,157.184,115.384,161.24,115.384z"/>
<path style="fill:#FFFFFF;" d="M215.912,115.384h25.496c4.056,0,7.344,3.288,7.344,7.344v25.496c0,4.056-3.288,7.344-7.344,7.344
	h-25.496c-4.056,0-7.344-3.288-7.344-7.344v-25.496C208.568,118.672,211.856,115.384,215.912,115.384z"/>
<g>
	<path style="fill:#E21B1B;" d="M270.592,115.384h25.496c4.056,0,7.344,3.288,7.344,7.344v25.496c0,4.056-3.288,7.344-7.344,7.344
		h-25.496c-4.056,0-7.344-3.288-7.344-7.344v-25.496C263.248,118.672,266.536,115.384,270.592,115.384z"/>
	<path style="fill:#E21B1B;" d="M325.272,115.384h25.496c4.056,0,7.344,3.288,7.344,7.344v25.496c0,4.056-3.288,7.344-7.344,7.344
		h-25.496c-4.056,0-7.344-3.288-7.344-7.344v-25.496C317.928,118.672,321.216,115.384,325.272,115.384z"/>
</g>
<path style="fill:#CCCCCC;" d="M161.24,171.016h25.496c4.056,0,7.344,3.288,7.344,7.344v25.496c0,4.056-3.288,7.344-7.344,7.344
	H161.24c-4.056,0-7.344-3.288-7.344-7.344V178.36C153.896,174.304,157.184,171.016,161.24,171.016z"/>
<path style="fill:#E21B1B;" d="M215.912,171.016h25.496c4.056,0,7.344,3.288,7.344,7.344v25.496c0,4.056-3.288,7.344-7.344,7.344
	h-25.496c-4.056,0-7.344-3.288-7.344-7.344V178.36C208.568,174.304,211.856,171.016,215.912,171.016z"/>
<path style="fill:#FFFFFF;" d="M270.592,171.016h25.496c4.056,0,7.344,3.288,7.344,7.344v25.496c0,4.056-3.288,7.344-7.344,7.344
	h-25.496c-4.056,0-7.344-3.288-7.344-7.344V178.36C263.248,174.304,266.536,171.016,270.592,171.016z"/>
<path style="fill:#CCCCCC;" d="M325.272,171.016h25.496c4.056,0,7.344,3.288,7.344,7.344v25.496c0,4.056-3.288,7.344-7.344,7.344
	h-25.496c-4.056,0-7.344-3.288-7.344-7.344V178.36C317.928,174.304,321.216,171.016,325.272,171.016z"/>
<path style="fill:#E21B1B;" d="M161.24,226.656h25.496c4.056,0,7.344,3.288,7.344,7.344v25.496c0,4.056-3.288,7.344-7.344,7.344
	H161.24c-4.056,0-7.344-3.288-7.344-7.344V234C153.896,229.944,157.184,226.656,161.24,226.656z"/>
<path style="fill:#FFFFFF;" d="M215.912,226.656h25.496c4.056,0,7.344,3.288,7.344,7.344v25.496c0,4.056-3.288,7.344-7.344,7.344
	h-25.496c-4.056,0-7.344-3.288-7.344-7.344V234C208.568,229.944,211.856,226.656,215.912,226.656z"/>
<path style="fill:#E21B1B;" d="M270.592,226.656h25.496c4.056,0,7.344,3.288,7.344,7.344v25.496c0,4.056-3.288,7.344-7.344,7.344
	h-25.496c-4.056,0-7.344-3.288-7.344-7.344V234C263.248,229.944,266.536,226.656,270.592,226.656z"/>
<path style="fill:#CCCCCC;" d="M325.272,226.656h25.496c4.056,0,7.344,3.288,7.344,7.344v25.496c0,4.056-3.288,7.344-7.344,7.344
	h-25.496c-4.056,0-7.344-3.288-7.344-7.344V234C317.928,229.944,321.216,226.656,325.272,226.656z"/>
<path style="fill:#666666;" d="M161.24,282.288h25.496c4.056,0,7.344,3.288,7.344,7.344v25.496c0,4.056-3.288,7.344-7.344,7.344
	H161.24c-4.056,0-7.344-3.288-7.344-7.344v-25.496C153.896,285.576,157.184,282.288,161.24,282.288z"/>
<path style="fill:#E21B1B;" d="M215.912,282.288h25.496c4.056,0,7.344,3.288,7.344,7.344v25.496c0,4.056-3.288,7.344-7.344,7.344
	h-25.496c-4.056,0-7.344-3.288-7.344-7.344v-25.496C208.568,285.576,211.856,282.288,215.912,282.288z"/>
<path style="fill:#666666;" d="M270.592,282.288h25.496c4.056,0,7.344,3.288,7.344,7.344v25.496c0,4.056-3.288,7.344-7.344,7.344
	h-25.496c-4.056,0-7.344-3.288-7.344-7.344v-25.496C263.248,285.576,266.536,282.288,270.592,282.288z"/>
<g>
	<path style="fill:#FFFFFF;" d="M325.272,282.288h25.496c4.056,0,7.344,3.288,7.344,7.344v25.496c0,4.056-3.288,7.344-7.344,7.344
		h-25.496c-4.056,0-7.344-3.288-7.344-7.344v-25.496C317.928,285.576,321.216,282.288,325.272,282.288z"/>
	<path style="fill:#FFFFFF;" d="M161.24,337.928h25.496c4.056,0,7.344,3.288,7.344,7.344v25.496c0,4.056-3.288,7.344-7.344,7.344
		H161.24c-4.056,0-7.344-3.288-7.344-7.344v-25.496C153.896,341.216,157.184,337.928,161.24,337.928z"/>
</g>
<path style="fill:#CCCCCC;" d="M215.912,337.928h25.496c4.056,0,7.344,3.288,7.344,7.344v25.496c0,4.056-3.288,7.344-7.344,7.344
	h-25.496c-4.056,0-7.344-3.288-7.344-7.344v-25.496C208.568,341.216,211.856,337.928,215.912,337.928z"/>
<path style="fill:#E21B1B;" d="M270.592,337.928h25.496c4.056,0,7.344,3.288,7.344,7.344v25.496c0,4.056-3.288,7.344-7.344,7.344
	h-25.496c-4.056,0-7.344-3.288-7.344-7.344v-25.496C263.248,341.216,266.536,337.928,270.592,337.928z"/>
<path style="fill:#CCCCCC;" d="M325.272,337.928h25.496c4.056,0,7.344,3.288,7.344,7.344v25.496c0,4.056-3.288,7.344-7.344,7.344
	h-25.496c-4.056,0-7.344-3.288-7.344-7.344v-25.496C317.928,341.216,321.216,337.928,325.272,337.928z"/>
<path style="fill:#E21B1B;" d="M161.24,393.56h25.496c4.056,0,7.344,3.288,7.344,7.344V426.4c0,4.056-3.288,7.344-7.344,7.344
	H161.24c-4.056,0-7.344-3.288-7.344-7.344v-25.496C153.896,396.848,157.184,393.56,161.24,393.56z"/>
<path style="fill:#FFFFFF;" d="M215.912,393.56h25.496c4.056,0,7.344,3.288,7.344,7.344V426.4c0,4.056-3.288,7.344-7.344,7.344
	h-25.496c-4.056,0-7.344-3.288-7.344-7.344v-25.496C208.568,396.848,211.856,393.56,215.912,393.56z"/>
<g>
	<path style="fill:#E21B1B;" d="M270.592,393.56h25.496c4.056,0,7.344,3.288,7.344,7.344V426.4c0,4.056-3.288,7.344-7.344,7.344
		h-25.496c-4.056,0-7.344-3.288-7.344-7.344v-25.496C263.248,396.848,266.536,393.56,270.592,393.56z"/>
	<path style="fill:#E21B1B;" d="M325.272,393.56h25.496c4.056,0,7.344,3.288,7.344,7.344V426.4c0,4.056-3.288,7.344-7.344,7.344
		h-25.496c-4.056,0-7.344-3.288-7.344-7.344v-25.496C317.928,396.848,321.216,393.56,325.272,393.56z"/>
</g>
</svg>